<mxfile host="app.diagrams.net" modified="2020-06-21T04:45:49.075Z" agent="5.0 (Windows NT 10.0; Win64; x64) AppleWebKit/537.36 (KHTML, like Gecko) Chrome/77.0.3865.90 Safari/537.36" etag="-lcvVdDkjE95iF-6oa0y" version="13.3.0" type="github">
  <diagram id="pEd8sRy8cGHwftMXuiIK" name="第 1 页">
    <mxGraphModel dx="1422" dy="762" grid="1" gridSize="10" guides="1" tooltips="1" connect="1" arrows="1" fold="1" page="1" pageScale="1" pageWidth="1500" pageHeight="1800" math="0" shadow="0">
      <root>
        <mxCell id="0" />
        <mxCell id="1" parent="0" />
        <mxCell id="kQAEc-HZ9etI3spFpuDu-14" style="edgeStyle=orthogonalEdgeStyle;rounded=0;orthogonalLoop=1;jettySize=auto;html=1;entryX=0;entryY=0.25;entryDx=0;entryDy=0;" parent="1" source="kQAEc-HZ9etI3spFpuDu-1" target="kQAEc-HZ9etI3spFpuDu-3" edge="1">
          <mxGeometry relative="1" as="geometry" />
        </mxCell>
        <mxCell id="kQAEc-HZ9etI3spFpuDu-15" value="因为线程A释放了锁，&lt;br&gt;所以返回库存信息，库存=99&lt;br&gt;并将数据锁上" style="edgeLabel;html=1;align=center;verticalAlign=middle;resizable=0;points=[];" parent="kQAEc-HZ9etI3spFpuDu-14" vertex="1" connectable="0">
          <mxGeometry x="-0.4255" y="-65" relative="1" as="geometry">
            <mxPoint x="67" y="65" as="offset" />
          </mxGeometry>
        </mxCell>
        <mxCell id="kQAEc-HZ9etI3spFpuDu-1" value="&lt;font style=&quot;font-size: 18px&quot;&gt;牙膏&lt;br&gt;100件&lt;/font&gt;" style="rounded=0;whiteSpace=wrap;html=1;" parent="1" vertex="1">
          <mxGeometry x="800" y="90" width="130" height="90" as="geometry" />
        </mxCell>
        <mxCell id="kQAEc-HZ9etI3spFpuDu-6" style="edgeStyle=orthogonalEdgeStyle;rounded=0;orthogonalLoop=1;jettySize=auto;html=1;entryX=0;entryY=0.5;entryDx=0;entryDy=0;" parent="1" source="kQAEc-HZ9etI3spFpuDu-2" target="kQAEc-HZ9etI3spFpuDu-1" edge="1">
          <mxGeometry relative="1" as="geometry">
            <Array as="points">
              <mxPoint x="620" y="135" />
            </Array>
          </mxGeometry>
        </mxCell>
        <mxCell id="kQAEc-HZ9etI3spFpuDu-7" value="1.读取数据，&lt;br&gt;库存显示100，并且给这个数据加上锁" style="edgeLabel;html=1;align=center;verticalAlign=middle;resizable=0;points=[];" parent="kQAEc-HZ9etI3spFpuDu-6" vertex="1" connectable="0">
          <mxGeometry x="-0.1803" y="-28" relative="1" as="geometry">
            <mxPoint x="14" y="-28" as="offset" />
          </mxGeometry>
        </mxCell>
        <mxCell id="kQAEc-HZ9etI3spFpuDu-12" style="edgeStyle=orthogonalEdgeStyle;rounded=0;orthogonalLoop=1;jettySize=auto;html=1;" parent="1" source="kQAEc-HZ9etI3spFpuDu-2" target="kQAEc-HZ9etI3spFpuDu-1" edge="1">
          <mxGeometry relative="1" as="geometry">
            <Array as="points">
              <mxPoint x="770" y="370" />
              <mxPoint x="770" y="158" />
            </Array>
          </mxGeometry>
        </mxCell>
        <mxCell id="kQAEc-HZ9etI3spFpuDu-13" value="3.购买了一个牙膏，库存减一，&lt;br&gt;把库存=99写入，并释放锁" style="edgeLabel;html=1;align=center;verticalAlign=middle;resizable=0;points=[];" parent="kQAEc-HZ9etI3spFpuDu-12" vertex="1" connectable="0">
          <mxGeometry x="-0.2165" y="1" relative="1" as="geometry">
            <mxPoint as="offset" />
          </mxGeometry>
        </mxCell>
        <mxCell id="kQAEc-HZ9etI3spFpuDu-2" value="&lt;font style=&quot;font-size: 18px&quot;&gt;线程A&lt;/font&gt;" style="rounded=0;whiteSpace=wrap;html=1;" parent="1" vertex="1">
          <mxGeometry x="520" y="340" width="120" height="60" as="geometry" />
        </mxCell>
        <mxCell id="kQAEc-HZ9etI3spFpuDu-8" style="edgeStyle=orthogonalEdgeStyle;rounded=0;orthogonalLoop=1;jettySize=auto;html=1;entryX=1;entryY=0.5;entryDx=0;entryDy=0;" parent="1" source="kQAEc-HZ9etI3spFpuDu-3" target="kQAEc-HZ9etI3spFpuDu-1" edge="1">
          <mxGeometry relative="1" as="geometry">
            <Array as="points">
              <mxPoint x="1260" y="135" />
            </Array>
          </mxGeometry>
        </mxCell>
        <mxCell id="kQAEc-HZ9etI3spFpuDu-9" value="2.读取数据，&lt;br&gt;数据被锁了，卡住" style="edgeLabel;html=1;align=center;verticalAlign=middle;resizable=0;points=[];" parent="kQAEc-HZ9etI3spFpuDu-8" vertex="1" connectable="0">
          <mxGeometry x="0.0122" y="36" relative="1" as="geometry">
            <mxPoint as="offset" />
          </mxGeometry>
        </mxCell>
        <mxCell id="kQAEc-HZ9etI3spFpuDu-19" style="edgeStyle=orthogonalEdgeStyle;rounded=0;orthogonalLoop=1;jettySize=auto;html=1;entryX=0.615;entryY=1.033;entryDx=0;entryDy=0;entryPerimeter=0;" parent="1" source="kQAEc-HZ9etI3spFpuDu-3" target="kQAEc-HZ9etI3spFpuDu-1" edge="1">
          <mxGeometry relative="1" as="geometry" />
        </mxCell>
        <mxCell id="kQAEc-HZ9etI3spFpuDu-20" value="购买，并释放锁" style="edgeLabel;html=1;align=center;verticalAlign=middle;resizable=0;points=[];" parent="kQAEc-HZ9etI3spFpuDu-19" vertex="1" connectable="0">
          <mxGeometry x="-0.2444" y="4" relative="1" as="geometry">
            <mxPoint as="offset" />
          </mxGeometry>
        </mxCell>
        <mxCell id="kQAEc-HZ9etI3spFpuDu-3" value="&lt;font style=&quot;font-size: 18px&quot;&gt;线程B&lt;/font&gt;" style="rounded=0;whiteSpace=wrap;html=1;" parent="1" vertex="1">
          <mxGeometry x="1200" y="320" width="120" height="60" as="geometry" />
        </mxCell>
        <mxCell id="kQAEc-HZ9etI3spFpuDu-21" value="&lt;font style=&quot;font-size: 24px&quot;&gt;悲观锁流程图&lt;/font&gt;" style="text;html=1;strokeColor=none;fillColor=none;align=center;verticalAlign=middle;whiteSpace=wrap;rounded=0;" parent="1" vertex="1">
          <mxGeometry x="690" y="440" width="380" height="80" as="geometry" />
        </mxCell>
        <mxCell id="kQAEc-HZ9etI3spFpuDu-22" value="&lt;font style=&quot;font-size: 24px&quot;&gt;乐观锁流程图&lt;/font&gt;" style="text;html=1;strokeColor=none;fillColor=none;align=center;verticalAlign=middle;whiteSpace=wrap;rounded=0;" parent="1" vertex="1">
          <mxGeometry x="720" y="1100" width="380" height="80" as="geometry" />
        </mxCell>
        <mxCell id="_pHEA_SPQfW4jdTTuVHt-10" style="edgeStyle=orthogonalEdgeStyle;rounded=0;orthogonalLoop=1;jettySize=auto;html=1;entryX=0.25;entryY=0;entryDx=0;entryDy=0;" edge="1" parent="1" source="kQAEc-HZ9etI3spFpuDu-23" target="kQAEc-HZ9etI3spFpuDu-25">
          <mxGeometry relative="1" as="geometry">
            <mxPoint x="930" y="870" as="targetPoint" />
            <Array as="points">
              <mxPoint x="910" y="820" />
              <mxPoint x="1200" y="820" />
            </Array>
          </mxGeometry>
        </mxCell>
        <mxCell id="_pHEA_SPQfW4jdTTuVHt-14" value="4-2：反馈，因为现在数据库版本为2，&lt;br&gt;跟带过来的版本为1，的不匹配更新失败" style="edgeLabel;html=1;align=center;verticalAlign=middle;resizable=0;points=[];" vertex="1" connectable="0" parent="_pHEA_SPQfW4jdTTuVHt-10">
          <mxGeometry x="-0.085" relative="1" as="geometry">
            <mxPoint as="offset" />
          </mxGeometry>
        </mxCell>
        <mxCell id="kQAEc-HZ9etI3spFpuDu-23" value="&lt;font style=&quot;font-size: 18px&quot;&gt;牙膏&lt;br&gt;100件&lt;br&gt;版本号：1&amp;nbsp;&lt;br&gt;&lt;br&gt;&lt;/font&gt;" style="rounded=0;whiteSpace=wrap;html=1;" parent="1" vertex="1">
          <mxGeometry x="820" y="670" width="180" height="90" as="geometry" />
        </mxCell>
        <mxCell id="kQAEc-HZ9etI3spFpuDu-26" style="edgeStyle=orthogonalEdgeStyle;rounded=0;orthogonalLoop=1;jettySize=auto;html=1;entryX=-0.008;entryY=0.422;entryDx=0;entryDy=0;entryPerimeter=0;" parent="1" source="kQAEc-HZ9etI3spFpuDu-24" target="kQAEc-HZ9etI3spFpuDu-23" edge="1">
          <mxGeometry relative="1" as="geometry">
            <Array as="points">
              <mxPoint x="600" y="718" />
            </Array>
          </mxGeometry>
        </mxCell>
        <mxCell id="kQAEc-HZ9etI3spFpuDu-27" value="&lt;font style=&quot;font-size: 14px&quot;&gt;1.读取数据，&lt;br&gt;库存显示100，版本号为1&lt;/font&gt;" style="edgeLabel;html=1;align=center;verticalAlign=middle;resizable=0;points=[];" parent="kQAEc-HZ9etI3spFpuDu-26" vertex="1" connectable="0">
          <mxGeometry x="-0.1805" y="-40" relative="1" as="geometry">
            <mxPoint x="30" y="2" as="offset" />
          </mxGeometry>
        </mxCell>
        <mxCell id="kQAEc-HZ9etI3spFpuDu-30" style="edgeStyle=orthogonalEdgeStyle;rounded=0;orthogonalLoop=1;jettySize=auto;html=1;entryX=0.154;entryY=1.022;entryDx=0;entryDy=0;entryPerimeter=0;" parent="1" source="kQAEc-HZ9etI3spFpuDu-24" target="kQAEc-HZ9etI3spFpuDu-23" edge="1">
          <mxGeometry relative="1" as="geometry" />
        </mxCell>
        <mxCell id="kQAEc-HZ9etI3spFpuDu-31" value="3.购买了一个牙膏，库存减一，&lt;br&gt;把库存=99写入，并把版本：1带上" style="edgeLabel;html=1;align=center;verticalAlign=middle;resizable=0;points=[];" parent="kQAEc-HZ9etI3spFpuDu-30" vertex="1" connectable="0">
          <mxGeometry x="-0.091" y="1" relative="1" as="geometry">
            <mxPoint as="offset" />
          </mxGeometry>
        </mxCell>
        <mxCell id="kQAEc-HZ9etI3spFpuDu-24" value="&lt;font style=&quot;font-size: 18px&quot;&gt;线程A&lt;/font&gt;" style="rounded=0;whiteSpace=wrap;html=1;" parent="1" vertex="1">
          <mxGeometry x="540" y="870" width="120" height="60" as="geometry" />
        </mxCell>
        <mxCell id="kQAEc-HZ9etI3spFpuDu-28" style="edgeStyle=orthogonalEdgeStyle;rounded=0;orthogonalLoop=1;jettySize=auto;html=1;entryX=1;entryY=0.5;entryDx=0;entryDy=0;" parent="1" source="kQAEc-HZ9etI3spFpuDu-25" target="kQAEc-HZ9etI3spFpuDu-23" edge="1">
          <mxGeometry relative="1" as="geometry">
            <Array as="points">
              <mxPoint x="1230" y="725" />
            </Array>
          </mxGeometry>
        </mxCell>
        <mxCell id="kQAEc-HZ9etI3spFpuDu-29" value="&lt;span style=&quot;font-size: 14px&quot;&gt;2.读取数据，&lt;/span&gt;&lt;br style=&quot;font-size: 14px&quot;&gt;&lt;span style=&quot;font-size: 14px&quot;&gt;库存显示100，版本号为1&lt;/span&gt;" style="edgeLabel;html=1;align=center;verticalAlign=middle;resizable=0;points=[];" parent="kQAEc-HZ9etI3spFpuDu-28" vertex="1" connectable="0">
          <mxGeometry x="0.2047" y="2" relative="1" as="geometry">
            <mxPoint as="offset" />
          </mxGeometry>
        </mxCell>
        <mxCell id="_pHEA_SPQfW4jdTTuVHt-3" style="edgeStyle=orthogonalEdgeStyle;rounded=0;orthogonalLoop=1;jettySize=auto;html=1;exitX=0;exitY=0.5;exitDx=0;exitDy=0;entryX=0.75;entryY=1;entryDx=0;entryDy=0;" edge="1" parent="1" source="kQAEc-HZ9etI3spFpuDu-25" target="kQAEc-HZ9etI3spFpuDu-23">
          <mxGeometry relative="1" as="geometry">
            <Array as="points">
              <mxPoint x="955" y="900" />
            </Array>
          </mxGeometry>
        </mxCell>
        <mxCell id="_pHEA_SPQfW4jdTTuVHt-7" value="4-1.购买了一个牙膏，库存减一，&lt;br&gt;把库存=99写入，并把版本：1带上" style="edgeLabel;html=1;align=center;verticalAlign=middle;resizable=0;points=[];" vertex="1" connectable="0" parent="_pHEA_SPQfW4jdTTuVHt-3">
          <mxGeometry x="-0.1887" y="4" relative="1" as="geometry">
            <mxPoint as="offset" />
          </mxGeometry>
        </mxCell>
        <mxCell id="_pHEA_SPQfW4jdTTuVHt-15" style="edgeStyle=orthogonalEdgeStyle;rounded=0;orthogonalLoop=1;jettySize=auto;html=1;entryX=1;entryY=0.25;entryDx=0;entryDy=0;" edge="1" parent="1" source="kQAEc-HZ9etI3spFpuDu-25" target="kQAEc-HZ9etI3spFpuDu-23">
          <mxGeometry relative="1" as="geometry">
            <Array as="points">
              <mxPoint x="1280" y="690" />
              <mxPoint x="1000" y="690" />
            </Array>
          </mxGeometry>
        </mxCell>
        <mxCell id="_pHEA_SPQfW4jdTTuVHt-16" value="&lt;span style=&quot;font-size: 14px&quot;&gt;5.读取数据，&lt;/span&gt;&lt;br style=&quot;font-size: 14px&quot;&gt;&lt;span style=&quot;font-size: 14px&quot;&gt;库存显示99，版本号为2&lt;/span&gt;" style="edgeLabel;html=1;align=center;verticalAlign=middle;resizable=0;points=[];" vertex="1" connectable="0" parent="_pHEA_SPQfW4jdTTuVHt-15">
          <mxGeometry x="-0.4122" y="-2" relative="1" as="geometry">
            <mxPoint x="18" y="46" as="offset" />
          </mxGeometry>
        </mxCell>
        <mxCell id="_pHEA_SPQfW4jdTTuVHt-18" style="edgeStyle=orthogonalEdgeStyle;rounded=0;orthogonalLoop=1;jettySize=auto;html=1;exitX=0.5;exitY=1;exitDx=0;exitDy=0;entryX=0.378;entryY=1;entryDx=0;entryDy=0;entryPerimeter=0;" edge="1" parent="1" source="kQAEc-HZ9etI3spFpuDu-25" target="kQAEc-HZ9etI3spFpuDu-23">
          <mxGeometry relative="1" as="geometry">
            <Array as="points">
              <mxPoint x="1230" y="1030" />
              <mxPoint x="900" y="1030" />
              <mxPoint x="900" y="760" />
            </Array>
          </mxGeometry>
        </mxCell>
        <mxCell id="_pHEA_SPQfW4jdTTuVHt-19" value="6.购买了一个牙膏，库存减一，&lt;br&gt;把库存=98写入，并把版本：2带上" style="edgeLabel;html=1;align=center;verticalAlign=middle;resizable=0;points=[];" vertex="1" connectable="0" parent="_pHEA_SPQfW4jdTTuVHt-18">
          <mxGeometry x="-0.1488" y="2" relative="1" as="geometry">
            <mxPoint as="offset" />
          </mxGeometry>
        </mxCell>
        <mxCell id="kQAEc-HZ9etI3spFpuDu-25" value="&lt;font style=&quot;font-size: 18px&quot;&gt;线程B&lt;/font&gt;" style="rounded=0;whiteSpace=wrap;html=1;" parent="1" vertex="1">
          <mxGeometry x="1170" y="870" width="120" height="60" as="geometry" />
        </mxCell>
        <mxCell id="_pHEA_SPQfW4jdTTuVHt-2" value="&lt;font style=&quot;font-size: 12px&quot;&gt;&lt;br&gt;&lt;br&gt;第三步后 ，库存：99，版本：2&lt;/font&gt;" style="text;html=1;strokeColor=none;fillColor=none;align=center;verticalAlign=middle;whiteSpace=wrap;rounded=0;" vertex="1" parent="1">
          <mxGeometry x="670" y="780" width="235" height="70" as="geometry" />
        </mxCell>
      </root>
    </mxGraphModel>
  </diagram>
</mxfile>
